<mxfile host="app.diagrams.net" agent="Mozilla/5.0 (Windows NT 10.0; Win64; x64) AppleWebKit/537.36 (KHTML, like Gecko) Chrome/127.0.0.0 Safari/537.36 OPR/113.0.0.0" version="24.8.3">
  <diagram name="Página-1" id="dI_VlImPaNk-nGwMc80n">
    <mxGraphModel dx="2002" dy="664" grid="1" gridSize="10" guides="1" tooltips="1" connect="1" arrows="1" fold="1" page="1" pageScale="1" pageWidth="827" pageHeight="1169" math="0" shadow="0">
      <root>
        <mxCell id="0" />
        <mxCell id="1" parent="0" />
        <mxCell id="5tBW5dL1tw9CFQz2tSGq-4" style="edgeStyle=orthogonalEdgeStyle;rounded=0;orthogonalLoop=1;jettySize=auto;html=1;exitX=0.25;exitY=1;exitDx=0;exitDy=0;entryX=1;entryY=0.5;entryDx=0;entryDy=0;endArrow=none;endFill=0;" parent="1" source="dwY3H2Nn9N54C49oqACN-2" target="fAyK1ohc_PUia5P7ffUz-2" edge="1">
          <mxGeometry relative="1" as="geometry" />
        </mxCell>
        <mxCell id="5tBW5dL1tw9CFQz2tSGq-5" style="edgeStyle=orthogonalEdgeStyle;rounded=0;orthogonalLoop=1;jettySize=auto;html=1;exitX=0.25;exitY=0;exitDx=0;exitDy=0;entryX=1;entryY=0.5;entryDx=0;entryDy=0;endArrow=none;endFill=0;" parent="1" source="dwY3H2Nn9N54C49oqACN-2" target="fAyK1ohc_PUia5P7ffUz-1" edge="1">
          <mxGeometry relative="1" as="geometry" />
        </mxCell>
        <mxCell id="dwY3H2Nn9N54C49oqACN-2" value="DATOS_EMPRESA" style="whiteSpace=wrap;html=1;" parent="1" vertex="1">
          <mxGeometry x="200" y="320" width="120" height="40" as="geometry" />
        </mxCell>
        <mxCell id="lAL7m3PNi31mJO6UvrHD-1" style="edgeStyle=orthogonalEdgeStyle;rounded=0;orthogonalLoop=1;jettySize=auto;html=1;exitX=0.419;exitY=1.053;exitDx=0;exitDy=0;entryX=0.5;entryY=0;entryDx=0;entryDy=0;endArrow=none;endFill=0;exitPerimeter=0;" parent="1" source="dwY3H2Nn9N54C49oqACN-27" target="lAL7m3PNi31mJO6UvrHD-6" edge="1">
          <mxGeometry relative="1" as="geometry">
            <Array as="points">
              <mxPoint x="570" y="440" />
              <mxPoint x="425" y="440" />
            </Array>
          </mxGeometry>
        </mxCell>
        <mxCell id="dwY3H2Nn9N54C49oqACN-27" value="ADMINISTRADOR" style="whiteSpace=wrap;html=1;" parent="1" vertex="1">
          <mxGeometry x="520" y="320" width="120" height="40" as="geometry" />
        </mxCell>
        <mxCell id="dwY3H2Nn9N54C49oqACN-28" value="REPORTE" style="whiteSpace=wrap;html=1;" parent="1" vertex="1">
          <mxGeometry x="690" y="481" width="120" height="40" as="geometry" />
        </mxCell>
        <mxCell id="lAL7m3PNi31mJO6UvrHD-26" style="edgeStyle=orthogonalEdgeStyle;rounded=0;orthogonalLoop=1;jettySize=auto;html=1;exitX=0.5;exitY=1;exitDx=0;exitDy=0;entryX=0.5;entryY=0;entryDx=0;entryDy=0;endArrow=none;endFill=0;" parent="1" source="dwY3H2Nn9N54C49oqACN-30" target="lAL7m3PNi31mJO6UvrHD-62" edge="1">
          <mxGeometry relative="1" as="geometry" />
        </mxCell>
        <mxCell id="dwY3H2Nn9N54C49oqACN-30" value="CLIENTE" style="whiteSpace=wrap;html=1;" parent="1" vertex="1">
          <mxGeometry x="259" y="680" width="120" height="40" as="geometry" />
        </mxCell>
        <mxCell id="dwY3H2Nn9N54C49oqACN-31" value="CARRITO" style="whiteSpace=wrap;html=1;" parent="1" vertex="1">
          <mxGeometry x="840" y="680" width="120" height="40" as="geometry" />
        </mxCell>
        <mxCell id="dwY3H2Nn9N54C49oqACN-32" value="TICKET" style="whiteSpace=wrap;html=1;" parent="1" vertex="1">
          <mxGeometry x="840" y="480" width="120" height="40" as="geometry" />
        </mxCell>
        <mxCell id="fAyK1ohc_PUia5P7ffUz-5" style="edgeStyle=orthogonalEdgeStyle;rounded=0;orthogonalLoop=1;jettySize=auto;html=1;exitX=0.25;exitY=0;exitDx=0;exitDy=0;entryX=1;entryY=0.5;entryDx=0;entryDy=0;endArrow=none;endFill=0;" edge="1" parent="1" source="dwY3H2Nn9N54C49oqACN-34" target="dwY3H2Nn9N54C49oqACN-89">
          <mxGeometry relative="1" as="geometry" />
        </mxCell>
        <mxCell id="dwY3H2Nn9N54C49oqACN-34" value="HISTORIETA" style="whiteSpace=wrap;html=1;" parent="1" vertex="1">
          <mxGeometry x="1240" y="481" width="120" height="40" as="geometry" />
        </mxCell>
        <mxCell id="dwY3H2Nn9N54C49oqACN-35" value="&lt;u&gt;NombreEmpresa&lt;/u&gt;" style="ellipse;whiteSpace=wrap;html=1;" parent="1" vertex="1">
          <mxGeometry x="320" y="90" width="100" height="40" as="geometry" />
        </mxCell>
        <mxCell id="dwY3H2Nn9N54C49oqACN-37" value="Rubro" style="ellipse;whiteSpace=wrap;html=1;" parent="1" vertex="1">
          <mxGeometry x="320" y="190" width="100" height="40" as="geometry" />
        </mxCell>
        <mxCell id="dwY3H2Nn9N54C49oqACN-38" value="Logo" style="ellipse;whiteSpace=wrap;html=1;" parent="1" vertex="1">
          <mxGeometry x="320" y="240" width="100" height="40" as="geometry" />
        </mxCell>
        <mxCell id="dwY3H2Nn9N54C49oqACN-39" value="Instagram" style="ellipse;whiteSpace=wrap;html=1;" parent="1" vertex="1">
          <mxGeometry y="60" width="100" height="40" as="geometry" />
        </mxCell>
        <mxCell id="dwY3H2Nn9N54C49oqACN-40" value="Facebook" style="ellipse;whiteSpace=wrap;html=1;" parent="1" vertex="1">
          <mxGeometry y="110" width="100" height="40" as="geometry" />
        </mxCell>
        <mxCell id="dwY3H2Nn9N54C49oqACN-41" value="X_Twitter" style="ellipse;whiteSpace=wrap;html=1;" parent="1" vertex="1">
          <mxGeometry y="160" width="100" height="40" as="geometry" />
        </mxCell>
        <mxCell id="dwY3H2Nn9N54C49oqACN-42" value="Celular1" style="ellipse;whiteSpace=wrap;html=1;" parent="1" vertex="1">
          <mxGeometry x="-150" y="110" width="100" height="40" as="geometry" />
        </mxCell>
        <mxCell id="dwY3H2Nn9N54C49oqACN-43" value="Celular2" style="ellipse;whiteSpace=wrap;html=1;" parent="1" vertex="1">
          <mxGeometry x="-150" y="160" width="100" height="40" as="geometry" />
        </mxCell>
        <mxCell id="dwY3H2Nn9N54C49oqACN-44" value="&lt;u&gt;Email&lt;/u&gt;" style="ellipse;whiteSpace=wrap;html=1;" parent="1" vertex="1">
          <mxGeometry x="320" y="140" width="100" height="40" as="geometry" />
        </mxCell>
        <mxCell id="dwY3H2Nn9N54C49oqACN-62" value="" style="orthogonalLoop=1;jettySize=auto;html=1;rounded=0;endArrow=none;endFill=0;entryX=0;entryY=0.5;entryDx=0;entryDy=0;exitX=1;exitY=0.5;exitDx=0;exitDy=0;" parent="1" source="dwY3H2Nn9N54C49oqACN-63" target="dwY3H2Nn9N54C49oqACN-27" edge="1">
          <mxGeometry width="100" relative="1" as="geometry">
            <mxPoint x="320" y="329.5" as="sourcePoint" />
            <mxPoint x="460" y="370" as="targetPoint" />
          </mxGeometry>
        </mxCell>
        <mxCell id="dwY3H2Nn9N54C49oqACN-64" value="" style="orthogonalLoop=1;jettySize=auto;html=1;rounded=0;endArrow=none;endFill=0;entryX=0;entryY=0.5;entryDx=0;entryDy=0;exitX=1;exitY=0.5;exitDx=0;exitDy=0;" parent="1" source="dwY3H2Nn9N54C49oqACN-2" target="dwY3H2Nn9N54C49oqACN-63" edge="1">
          <mxGeometry width="100" relative="1" as="geometry">
            <mxPoint x="320" y="340" as="sourcePoint" />
            <mxPoint x="480" y="340" as="targetPoint" />
          </mxGeometry>
        </mxCell>
        <mxCell id="dwY3H2Nn9N54C49oqACN-63" value="Carga" style="rhombus;whiteSpace=wrap;html=1;" parent="1" vertex="1">
          <mxGeometry x="390" y="320" width="60" height="40" as="geometry" />
        </mxCell>
        <mxCell id="dwY3H2Nn9N54C49oqACN-69" value="TipoUsuario" style="ellipse;whiteSpace=wrap;html=1;" parent="1" vertex="1">
          <mxGeometry x="452.5" y="220" width="100" height="40" as="geometry" />
        </mxCell>
        <mxCell id="dwY3H2Nn9N54C49oqACN-70" value="NroTelefono" style="ellipse;whiteSpace=wrap;html=1;" parent="1" vertex="1">
          <mxGeometry x="457.5" y="270" width="100" height="40" as="geometry" />
        </mxCell>
        <mxCell id="dwY3H2Nn9N54C49oqACN-71" value="Contraseña" style="ellipse;whiteSpace=wrap;html=1;" parent="1" vertex="1">
          <mxGeometry x="605" y="270" width="100" height="40" as="geometry" />
        </mxCell>
        <mxCell id="dwY3H2Nn9N54C49oqACN-72" value="Nombre" style="ellipse;whiteSpace=wrap;html=1;" parent="1" vertex="1">
          <mxGeometry x="605" y="120" width="100" height="40" as="geometry" />
        </mxCell>
        <mxCell id="dwY3H2Nn9N54C49oqACN-73" value="Apellido" style="ellipse;whiteSpace=wrap;html=1;" parent="1" vertex="1">
          <mxGeometry x="605" y="170" width="100" height="40" as="geometry" />
        </mxCell>
        <mxCell id="dwY3H2Nn9N54C49oqACN-74" value="&lt;u&gt;Email&lt;/u&gt;" style="ellipse;whiteSpace=wrap;html=1;" parent="1" vertex="1">
          <mxGeometry x="605" y="220" width="100" height="40" as="geometry" />
        </mxCell>
        <mxCell id="dwY3H2Nn9N54C49oqACN-76" value="&lt;u&gt;IdUsuario&lt;/u&gt;" style="ellipse;whiteSpace=wrap;html=1;" parent="1" vertex="1">
          <mxGeometry x="450" y="120" width="100" height="40" as="geometry" />
        </mxCell>
        <mxCell id="dwY3H2Nn9N54C49oqACN-77" value="FechaNacimiento" style="ellipse;whiteSpace=wrap;html=1;" parent="1" vertex="1">
          <mxGeometry x="452.5" y="170" width="100" height="40" as="geometry" />
        </mxCell>
        <mxCell id="dwY3H2Nn9N54C49oqACN-78" value="" style="orthogonalLoop=1;jettySize=auto;html=1;rounded=0;endArrow=none;endFill=0;entryX=0.5;entryY=0;entryDx=0;entryDy=0;exitX=1;exitY=0.5;exitDx=0;exitDy=0;" parent="1" source="dwY3H2Nn9N54C49oqACN-77" target="dwY3H2Nn9N54C49oqACN-27" edge="1">
          <mxGeometry width="100" relative="1" as="geometry">
            <mxPoint x="530" y="180" as="sourcePoint" />
            <mxPoint x="590" y="380.5" as="targetPoint" />
          </mxGeometry>
        </mxCell>
        <mxCell id="dwY3H2Nn9N54C49oqACN-79" value="" style="orthogonalLoop=1;jettySize=auto;html=1;rounded=0;endArrow=none;endFill=0;entryX=0.5;entryY=0;entryDx=0;entryDy=0;exitX=1;exitY=0.5;exitDx=0;exitDy=0;" parent="1" source="dwY3H2Nn9N54C49oqACN-76" target="dwY3H2Nn9N54C49oqACN-27" edge="1">
          <mxGeometry width="100" relative="1" as="geometry">
            <mxPoint x="575" y="169.5" as="sourcePoint" />
            <mxPoint x="635" y="370" as="targetPoint" />
          </mxGeometry>
        </mxCell>
        <mxCell id="dwY3H2Nn9N54C49oqACN-80" value="" style="orthogonalLoop=1;jettySize=auto;html=1;rounded=0;endArrow=none;endFill=0;entryX=0.5;entryY=0;entryDx=0;entryDy=0;exitX=0;exitY=0.5;exitDx=0;exitDy=0;" parent="1" source="dwY3H2Nn9N54C49oqACN-72" target="dwY3H2Nn9N54C49oqACN-27" edge="1">
          <mxGeometry width="100" relative="1" as="geometry">
            <mxPoint x="600" y="164" as="sourcePoint" />
            <mxPoint x="580" y="330" as="targetPoint" />
          </mxGeometry>
        </mxCell>
        <mxCell id="dwY3H2Nn9N54C49oqACN-81" value="" style="orthogonalLoop=1;jettySize=auto;html=1;rounded=0;endArrow=none;endFill=0;entryX=0.5;entryY=0;entryDx=0;entryDy=0;exitX=0;exitY=0.5;exitDx=0;exitDy=0;" parent="1" source="dwY3H2Nn9N54C49oqACN-73" target="dwY3H2Nn9N54C49oqACN-27" edge="1">
          <mxGeometry width="100" relative="1" as="geometry">
            <mxPoint x="610" y="174" as="sourcePoint" />
            <mxPoint x="590" y="340" as="targetPoint" />
          </mxGeometry>
        </mxCell>
        <mxCell id="dwY3H2Nn9N54C49oqACN-82" value="" style="orthogonalLoop=1;jettySize=auto;html=1;rounded=0;endArrow=none;endFill=0;entryX=0.5;entryY=0;entryDx=0;entryDy=0;exitX=0;exitY=0.5;exitDx=0;exitDy=0;" parent="1" source="dwY3H2Nn9N54C49oqACN-74" target="dwY3H2Nn9N54C49oqACN-27" edge="1">
          <mxGeometry width="100" relative="1" as="geometry">
            <mxPoint x="620" y="184" as="sourcePoint" />
            <mxPoint x="600" y="350" as="targetPoint" />
          </mxGeometry>
        </mxCell>
        <mxCell id="dwY3H2Nn9N54C49oqACN-83" value="" style="orthogonalLoop=1;jettySize=auto;html=1;rounded=0;endArrow=none;endFill=0;entryX=0.5;entryY=0;entryDx=0;entryDy=0;exitX=1;exitY=0.5;exitDx=0;exitDy=0;" parent="1" source="dwY3H2Nn9N54C49oqACN-69" target="dwY3H2Nn9N54C49oqACN-27" edge="1">
          <mxGeometry width="100" relative="1" as="geometry">
            <mxPoint x="630" y="194" as="sourcePoint" />
            <mxPoint x="610" y="360" as="targetPoint" />
          </mxGeometry>
        </mxCell>
        <mxCell id="dwY3H2Nn9N54C49oqACN-84" value="" style="orthogonalLoop=1;jettySize=auto;html=1;rounded=0;endArrow=none;endFill=0;exitX=1;exitY=0.5;exitDx=0;exitDy=0;entryX=0.5;entryY=0;entryDx=0;entryDy=0;" parent="1" source="dwY3H2Nn9N54C49oqACN-70" target="dwY3H2Nn9N54C49oqACN-27" edge="1">
          <mxGeometry width="100" relative="1" as="geometry">
            <mxPoint x="640" y="204" as="sourcePoint" />
            <mxPoint x="530" y="300" as="targetPoint" />
          </mxGeometry>
        </mxCell>
        <mxCell id="dwY3H2Nn9N54C49oqACN-86" value="" style="orthogonalLoop=1;jettySize=auto;html=1;rounded=0;endArrow=none;endFill=0;entryX=0.5;entryY=0;entryDx=0;entryDy=0;exitX=0;exitY=0.5;exitDx=0;exitDy=0;" parent="1" source="dwY3H2Nn9N54C49oqACN-71" target="dwY3H2Nn9N54C49oqACN-27" edge="1">
          <mxGeometry width="100" relative="1" as="geometry">
            <mxPoint x="650" y="214" as="sourcePoint" />
            <mxPoint x="630" y="380" as="targetPoint" />
          </mxGeometry>
        </mxCell>
        <mxCell id="dwY3H2Nn9N54C49oqACN-87" style="edgeStyle=orthogonalEdgeStyle;rounded=0;orthogonalLoop=1;jettySize=auto;html=1;exitX=0.5;exitY=1;exitDx=0;exitDy=0;" parent="1" source="dwY3H2Nn9N54C49oqACN-69" target="dwY3H2Nn9N54C49oqACN-69" edge="1">
          <mxGeometry relative="1" as="geometry" />
        </mxCell>
        <mxCell id="dwY3H2Nn9N54C49oqACN-94" value="" style="orthogonalLoop=1;jettySize=auto;html=1;rounded=0;endArrow=none;endFill=0;exitX=1;exitY=0.5;exitDx=0;exitDy=0;entryX=0;entryY=0.5;entryDx=0;entryDy=0;" parent="1" target="dwY3H2Nn9N54C49oqACN-89" edge="1">
          <mxGeometry width="100" relative="1" as="geometry">
            <mxPoint x="640" y="339.5" as="sourcePoint" />
            <mxPoint x="840" y="340" as="targetPoint" />
          </mxGeometry>
        </mxCell>
        <mxCell id="dwY3H2Nn9N54C49oqACN-89" value="Crea" style="rhombus;whiteSpace=wrap;html=1;" parent="1" vertex="1">
          <mxGeometry x="870" y="320" width="60" height="40" as="geometry" />
        </mxCell>
        <mxCell id="dwY3H2Nn9N54C49oqACN-110" value="" style="orthogonalLoop=1;jettySize=auto;html=1;rounded=0;endArrow=none;endFill=0;entryX=0;entryY=0.5;entryDx=0;entryDy=0;exitX=1;exitY=0.5;exitDx=0;exitDy=0;" parent="1" source="dwY3H2Nn9N54C49oqACN-30" target="dwY3H2Nn9N54C49oqACN-111" edge="1">
          <mxGeometry width="100" relative="1" as="geometry">
            <mxPoint x="794" y="560" as="sourcePoint" />
            <mxPoint x="854" y="660" as="targetPoint" />
          </mxGeometry>
        </mxCell>
        <mxCell id="dwY3H2Nn9N54C49oqACN-111" value="Tiene" style="rhombus;whiteSpace=wrap;html=1;" parent="1" vertex="1">
          <mxGeometry x="570" y="680" width="60" height="40" as="geometry" />
        </mxCell>
        <mxCell id="dwY3H2Nn9N54C49oqACN-112" value="" style="orthogonalLoop=1;jettySize=auto;html=1;rounded=0;endArrow=none;endFill=0;entryX=0;entryY=0.5;entryDx=0;entryDy=0;exitX=1;exitY=0.5;exitDx=0;exitDy=0;" parent="1" source="dwY3H2Nn9N54C49oqACN-111" target="dwY3H2Nn9N54C49oqACN-31" edge="1">
          <mxGeometry width="100" relative="1" as="geometry">
            <mxPoint x="910" y="570" as="sourcePoint" />
            <mxPoint x="910" y="650" as="targetPoint" />
            <Array as="points" />
          </mxGeometry>
        </mxCell>
        <mxCell id="dwY3H2Nn9N54C49oqACN-114" value="" style="orthogonalLoop=1;jettySize=auto;html=1;rounded=0;endArrow=none;endFill=0;entryX=0.5;entryY=0;entryDx=0;entryDy=0;exitX=0.5;exitY=0;exitDx=0;exitDy=0;" parent="1" source="dwY3H2Nn9N54C49oqACN-31" target="dwY3H2Nn9N54C49oqACN-115" edge="1">
          <mxGeometry width="100" relative="1" as="geometry">
            <mxPoint x="898.5" y="770" as="sourcePoint" />
            <mxPoint x="960" y="960" as="targetPoint" />
          </mxGeometry>
        </mxCell>
        <mxCell id="dwY3H2Nn9N54C49oqACN-115" value="Compra" style="rhombus;whiteSpace=wrap;html=1;" parent="1" vertex="1">
          <mxGeometry x="870" y="571" width="60" height="40" as="geometry" />
        </mxCell>
        <mxCell id="dwY3H2Nn9N54C49oqACN-116" value="" style="orthogonalLoop=1;jettySize=auto;html=1;rounded=0;endArrow=none;endFill=0;exitX=0.5;exitY=0;exitDx=0;exitDy=0;entryX=0.5;entryY=1;entryDx=0;entryDy=0;" parent="1" source="dwY3H2Nn9N54C49oqACN-115" target="dwY3H2Nn9N54C49oqACN-32" edge="1">
          <mxGeometry width="100" relative="1" as="geometry">
            <mxPoint x="910" y="870" as="sourcePoint" />
            <mxPoint x="900" y="960" as="targetPoint" />
          </mxGeometry>
        </mxCell>
        <mxCell id="dwY3H2Nn9N54C49oqACN-120" value="NombreUser" style="ellipse;whiteSpace=wrap;html=1;" parent="1" vertex="1">
          <mxGeometry x="140" y="581" width="100" height="40" as="geometry" />
        </mxCell>
        <mxCell id="dwY3H2Nn9N54C49oqACN-121" value="&lt;u&gt;Email&lt;/u&gt;" style="ellipse;whiteSpace=wrap;html=1;" parent="1" vertex="1">
          <mxGeometry x="140" y="631" width="100" height="40" as="geometry" />
        </mxCell>
        <mxCell id="dwY3H2Nn9N54C49oqACN-122" value="Contrasenia" style="ellipse;whiteSpace=wrap;html=1;" parent="1" vertex="1">
          <mxGeometry x="140" y="680" width="100" height="40" as="geometry" />
        </mxCell>
        <mxCell id="dwY3H2Nn9N54C49oqACN-124" value="TipoUsuario" style="ellipse;whiteSpace=wrap;html=1;" parent="1" vertex="1">
          <mxGeometry x="140" y="729" width="100" height="40" as="geometry" />
        </mxCell>
        <mxCell id="dwY3H2Nn9N54C49oqACN-130" value="" style="orthogonalLoop=1;jettySize=auto;html=1;rounded=0;endArrow=none;endFill=0;entryX=0;entryY=0.5;entryDx=0;entryDy=0;exitX=1;exitY=0.5;exitDx=0;exitDy=0;" parent="1" source="dwY3H2Nn9N54C49oqACN-120" target="dwY3H2Nn9N54C49oqACN-30" edge="1">
          <mxGeometry width="100" relative="1" as="geometry">
            <mxPoint x="740" y="440" as="sourcePoint" />
            <mxPoint x="800" y="490" as="targetPoint" />
          </mxGeometry>
        </mxCell>
        <mxCell id="dwY3H2Nn9N54C49oqACN-131" value="" style="orthogonalLoop=1;jettySize=auto;html=1;rounded=0;endArrow=none;endFill=0;entryX=0;entryY=0.5;entryDx=0;entryDy=0;exitX=1;exitY=0.5;exitDx=0;exitDy=0;" parent="1" source="dwY3H2Nn9N54C49oqACN-121" target="dwY3H2Nn9N54C49oqACN-30" edge="1">
          <mxGeometry width="100" relative="1" as="geometry">
            <mxPoint x="740" y="490" as="sourcePoint" />
            <mxPoint x="800" y="490" as="targetPoint" />
          </mxGeometry>
        </mxCell>
        <mxCell id="dwY3H2Nn9N54C49oqACN-132" value="" style="orthogonalLoop=1;jettySize=auto;html=1;rounded=0;endArrow=none;endFill=0;entryX=0;entryY=0.5;entryDx=0;entryDy=0;exitX=1;exitY=0.5;exitDx=0;exitDy=0;" parent="1" source="dwY3H2Nn9N54C49oqACN-122" target="dwY3H2Nn9N54C49oqACN-30" edge="1">
          <mxGeometry width="100" relative="1" as="geometry">
            <mxPoint x="740" y="540" as="sourcePoint" />
            <mxPoint x="800" y="490" as="targetPoint" />
          </mxGeometry>
        </mxCell>
        <mxCell id="dwY3H2Nn9N54C49oqACN-134" value="" style="orthogonalLoop=1;jettySize=auto;html=1;rounded=0;endArrow=none;endFill=0;entryX=0;entryY=0.5;entryDx=0;entryDy=0;exitX=1;exitY=0.5;exitDx=0;exitDy=0;" parent="1" source="dwY3H2Nn9N54C49oqACN-124" target="dwY3H2Nn9N54C49oqACN-30" edge="1">
          <mxGeometry width="100" relative="1" as="geometry">
            <mxPoint x="740" y="640" as="sourcePoint" />
            <mxPoint x="800" y="490" as="targetPoint" />
          </mxGeometry>
        </mxCell>
        <mxCell id="dwY3H2Nn9N54C49oqACN-157" value="NroTelefono" style="ellipse;whiteSpace=wrap;html=1;" parent="1" vertex="1">
          <mxGeometry x="140" y="778" width="100" height="40" as="geometry" />
        </mxCell>
        <mxCell id="dwY3H2Nn9N54C49oqACN-158" value="" style="orthogonalLoop=1;jettySize=auto;html=1;rounded=0;endArrow=none;endFill=0;entryX=0;entryY=0.5;entryDx=0;entryDy=0;exitX=1;exitY=0.5;exitDx=0;exitDy=0;" parent="1" source="dwY3H2Nn9N54C49oqACN-157" target="dwY3H2Nn9N54C49oqACN-30" edge="1">
          <mxGeometry width="100" relative="1" as="geometry">
            <mxPoint x="790" y="680" as="sourcePoint" />
            <mxPoint x="850" y="530" as="targetPoint" />
          </mxGeometry>
        </mxCell>
        <mxCell id="dwY3H2Nn9N54C49oqACN-160" value="" style="orthogonalLoop=1;jettySize=auto;html=1;rounded=0;endArrow=none;endFill=0;entryX=0.5;entryY=1;entryDx=0;entryDy=0;exitX=0.5;exitY=0;exitDx=0;exitDy=0;" parent="1" source="dwY3H2Nn9N54C49oqACN-161" target="dwY3H2Nn9N54C49oqACN-31" edge="1">
          <mxGeometry width="100" relative="1" as="geometry">
            <mxPoint x="740" y="830" as="sourcePoint" />
            <mxPoint x="800" y="680" as="targetPoint" />
          </mxGeometry>
        </mxCell>
        <mxCell id="dwY3H2Nn9N54C49oqACN-161" value="&lt;u&gt;IdCarrito&lt;/u&gt;" style="ellipse;whiteSpace=wrap;html=1;" parent="1" vertex="1">
          <mxGeometry x="850" y="750" width="100" height="40" as="geometry" />
        </mxCell>
        <mxCell id="dwY3H2Nn9N54C49oqACN-164" value="" style="orthogonalLoop=1;jettySize=auto;html=1;rounded=0;endArrow=none;endFill=0;entryX=1;entryY=0.5;entryDx=0;entryDy=0;exitX=0;exitY=0.5;exitDx=0;exitDy=0;" parent="1" source="dwY3H2Nn9N54C49oqACN-165" target="dwY3H2Nn9N54C49oqACN-32" edge="1">
          <mxGeometry width="100" relative="1" as="geometry">
            <mxPoint x="1043" y="1119" as="sourcePoint" />
            <mxPoint x="987" y="500" as="targetPoint" />
          </mxGeometry>
        </mxCell>
        <mxCell id="dwY3H2Nn9N54C49oqACN-165" value="&lt;u&gt;NroTicket&lt;/u&gt;" style="ellipse;whiteSpace=wrap;html=1;" parent="1" vertex="1">
          <mxGeometry x="980" y="380.5" width="100" height="40" as="geometry" />
        </mxCell>
        <mxCell id="dwY3H2Nn9N54C49oqACN-174" value="NombreCategoria" style="ellipse;whiteSpace=wrap;html=1;" parent="1" vertex="1">
          <mxGeometry x="1400" y="188" width="100" height="40" as="geometry" />
        </mxCell>
        <mxCell id="dwY3H2Nn9N54C49oqACN-180" value="&lt;u&gt;ISBN&lt;/u&gt;" style="ellipse;whiteSpace=wrap;html=1;" parent="1" vertex="1">
          <mxGeometry x="1400" y="140" width="100" height="40" as="geometry" />
        </mxCell>
        <mxCell id="dwY3H2Nn9N54C49oqACN-181" value="Nombre" style="ellipse;whiteSpace=wrap;html=1;" parent="1" vertex="1">
          <mxGeometry x="1400" y="235" width="100" height="40" as="geometry" />
        </mxCell>
        <mxCell id="dwY3H2Nn9N54C49oqACN-182" value="EditOrg" style="ellipse;whiteSpace=wrap;html=1;" parent="1" vertex="1">
          <mxGeometry x="1400" y="331" width="100" height="40" as="geometry" />
        </mxCell>
        <mxCell id="dwY3H2Nn9N54C49oqACN-183" value="Autores" style="ellipse;whiteSpace=wrap;html=1;" parent="1" vertex="1">
          <mxGeometry x="1400" y="381" width="100" height="40" as="geometry" />
        </mxCell>
        <mxCell id="dwY3H2Nn9N54C49oqACN-184" value="Paginas" style="ellipse;whiteSpace=wrap;html=1;" parent="1" vertex="1">
          <mxGeometry x="1400" y="431" width="100" height="40" as="geometry" />
        </mxCell>
        <mxCell id="dwY3H2Nn9N54C49oqACN-185" value="Tamaño" style="ellipse;whiteSpace=wrap;html=1;" parent="1" vertex="1">
          <mxGeometry x="1400" y="481" width="100" height="40" as="geometry" />
        </mxCell>
        <mxCell id="dwY3H2Nn9N54C49oqACN-194" value="" style="orthogonalLoop=1;jettySize=auto;html=1;rounded=0;endArrow=none;endFill=0;exitX=0;exitY=0.5;exitDx=0;exitDy=0;entryX=1;entryY=0.5;entryDx=0;entryDy=0;" parent="1" source="dwY3H2Nn9N54C49oqACN-180" target="dwY3H2Nn9N54C49oqACN-34" edge="1">
          <mxGeometry width="100" relative="1" as="geometry">
            <mxPoint x="1340" y="560" as="sourcePoint" />
            <mxPoint x="1340" y="640" as="targetPoint" />
          </mxGeometry>
        </mxCell>
        <mxCell id="dwY3H2Nn9N54C49oqACN-195" value="" style="orthogonalLoop=1;jettySize=auto;html=1;rounded=0;endArrow=none;endFill=0;exitX=0;exitY=0.5;exitDx=0;exitDy=0;entryX=1;entryY=0.5;entryDx=0;entryDy=0;" parent="1" source="dwY3H2Nn9N54C49oqACN-181" target="dwY3H2Nn9N54C49oqACN-34" edge="1">
          <mxGeometry width="100" relative="1" as="geometry">
            <mxPoint x="1350" y="570" as="sourcePoint" />
            <mxPoint x="1350" y="650" as="targetPoint" />
          </mxGeometry>
        </mxCell>
        <mxCell id="dwY3H2Nn9N54C49oqACN-196" value="" style="orthogonalLoop=1;jettySize=auto;html=1;rounded=0;endArrow=none;endFill=0;exitX=0;exitY=0.5;exitDx=0;exitDy=0;entryX=1;entryY=0.5;entryDx=0;entryDy=0;" parent="1" source="dwY3H2Nn9N54C49oqACN-182" target="dwY3H2Nn9N54C49oqACN-34" edge="1">
          <mxGeometry width="100" relative="1" as="geometry">
            <mxPoint x="1360" y="580" as="sourcePoint" />
            <mxPoint x="1360" y="660" as="targetPoint" />
          </mxGeometry>
        </mxCell>
        <mxCell id="dwY3H2Nn9N54C49oqACN-197" value="" style="orthogonalLoop=1;jettySize=auto;html=1;rounded=0;endArrow=none;endFill=0;exitX=0;exitY=0.5;exitDx=0;exitDy=0;entryX=1;entryY=0.5;entryDx=0;entryDy=0;" parent="1" source="dwY3H2Nn9N54C49oqACN-183" target="dwY3H2Nn9N54C49oqACN-34" edge="1">
          <mxGeometry width="100" relative="1" as="geometry">
            <mxPoint x="1370" y="590" as="sourcePoint" />
            <mxPoint x="1370" y="670" as="targetPoint" />
          </mxGeometry>
        </mxCell>
        <mxCell id="dwY3H2Nn9N54C49oqACN-198" value="" style="orthogonalLoop=1;jettySize=auto;html=1;rounded=0;endArrow=none;endFill=0;exitX=0;exitY=0.5;exitDx=0;exitDy=0;entryX=1;entryY=0.5;entryDx=0;entryDy=0;" parent="1" source="dwY3H2Nn9N54C49oqACN-184" target="dwY3H2Nn9N54C49oqACN-34" edge="1">
          <mxGeometry width="100" relative="1" as="geometry">
            <mxPoint x="1380" y="600" as="sourcePoint" />
            <mxPoint x="1380" y="680" as="targetPoint" />
          </mxGeometry>
        </mxCell>
        <mxCell id="dwY3H2Nn9N54C49oqACN-199" value="" style="orthogonalLoop=1;jettySize=auto;html=1;rounded=0;endArrow=none;endFill=0;exitX=0;exitY=0.5;exitDx=0;exitDy=0;entryX=1;entryY=0.5;entryDx=0;entryDy=0;" parent="1" source="dwY3H2Nn9N54C49oqACN-185" target="dwY3H2Nn9N54C49oqACN-34" edge="1">
          <mxGeometry width="100" relative="1" as="geometry">
            <mxPoint x="1390" y="610" as="sourcePoint" />
            <mxPoint x="1290" y="780" as="targetPoint" />
          </mxGeometry>
        </mxCell>
        <mxCell id="dwY3H2Nn9N54C49oqACN-201" value="Contenido" style="ellipse;whiteSpace=wrap;html=1;" parent="1" vertex="1">
          <mxGeometry x="1400" y="531" width="100" height="40" as="geometry" />
        </mxCell>
        <mxCell id="dwY3H2Nn9N54C49oqACN-202" value="Formato" style="ellipse;whiteSpace=wrap;html=1;" parent="1" vertex="1">
          <mxGeometry x="1400" y="581" width="100" height="40" as="geometry" />
        </mxCell>
        <mxCell id="dwY3H2Nn9N54C49oqACN-203" value="Edad" style="ellipse;whiteSpace=wrap;html=1;" parent="1" vertex="1">
          <mxGeometry x="1400" y="631" width="100" height="40" as="geometry" />
        </mxCell>
        <mxCell id="dwY3H2Nn9N54C49oqACN-207" value="" style="orthogonalLoop=1;jettySize=auto;html=1;rounded=0;endArrow=none;endFill=0;exitX=0;exitY=0.5;exitDx=0;exitDy=0;entryX=1;entryY=0.5;entryDx=0;entryDy=0;" parent="1" source="dwY3H2Nn9N54C49oqACN-201" target="dwY3H2Nn9N54C49oqACN-34" edge="1">
          <mxGeometry width="100" relative="1" as="geometry">
            <mxPoint x="1440" y="810" as="sourcePoint" />
            <mxPoint x="1400" y="660" as="targetPoint" />
          </mxGeometry>
        </mxCell>
        <mxCell id="dwY3H2Nn9N54C49oqACN-208" value="" style="orthogonalLoop=1;jettySize=auto;html=1;rounded=0;endArrow=none;endFill=0;exitX=0;exitY=0.5;exitDx=0;exitDy=0;entryX=1;entryY=0.5;entryDx=0;entryDy=0;" parent="1" source="dwY3H2Nn9N54C49oqACN-202" target="dwY3H2Nn9N54C49oqACN-34" edge="1">
          <mxGeometry width="100" relative="1" as="geometry">
            <mxPoint x="1450" y="820" as="sourcePoint" />
            <mxPoint x="1410" y="670" as="targetPoint" />
          </mxGeometry>
        </mxCell>
        <mxCell id="dwY3H2Nn9N54C49oqACN-209" value="" style="orthogonalLoop=1;jettySize=auto;html=1;rounded=0;endArrow=none;endFill=0;exitX=0;exitY=0.5;exitDx=0;exitDy=0;entryX=1;entryY=0.5;entryDx=0;entryDy=0;" parent="1" source="dwY3H2Nn9N54C49oqACN-203" target="dwY3H2Nn9N54C49oqACN-34" edge="1">
          <mxGeometry width="100" relative="1" as="geometry">
            <mxPoint x="1460" y="830" as="sourcePoint" />
            <mxPoint x="1420" y="680" as="targetPoint" />
          </mxGeometry>
        </mxCell>
        <mxCell id="dwY3H2Nn9N54C49oqACN-228" value="" style="orthogonalLoop=1;jettySize=auto;html=1;rounded=0;endArrow=none;endFill=0;exitX=0;exitY=0.5;exitDx=0;exitDy=0;entryX=1;entryY=0.5;entryDx=0;entryDy=0;" parent="1" source="dwY3H2Nn9N54C49oqACN-229" target="dwY3H2Nn9N54C49oqACN-31" edge="1">
          <mxGeometry width="100" relative="1" as="geometry">
            <mxPoint x="1320" y="642.5" as="sourcePoint" />
            <mxPoint x="970" y="605" as="targetPoint" />
          </mxGeometry>
        </mxCell>
        <mxCell id="5tBW5dL1tw9CFQz2tSGq-25" style="edgeStyle=orthogonalEdgeStyle;rounded=0;orthogonalLoop=1;jettySize=auto;html=1;exitX=1;exitY=0.5;exitDx=0;exitDy=0;entryX=0.25;entryY=1;entryDx=0;entryDy=0;endArrow=none;endFill=0;" parent="1" source="dwY3H2Nn9N54C49oqACN-229" target="dwY3H2Nn9N54C49oqACN-34" edge="1">
          <mxGeometry relative="1" as="geometry">
            <Array as="points">
              <mxPoint x="1270" y="700" />
            </Array>
          </mxGeometry>
        </mxCell>
        <mxCell id="dwY3H2Nn9N54C49oqACN-229" value="Agrega" style="rhombus;whiteSpace=wrap;html=1;fillColor=default;gradientColor=none;" parent="1" vertex="1">
          <mxGeometry x="1086" y="680" width="60" height="40" as="geometry" />
        </mxCell>
        <mxCell id="dwY3H2Nn9N54C49oqACN-232" value="" style="orthogonalLoop=1;jettySize=auto;html=1;rounded=0;endArrow=none;endFill=0;exitX=1;exitY=1;exitDx=0;exitDy=0;entryX=0;entryY=0;entryDx=0;entryDy=0;" parent="1" source="dwY3H2Nn9N54C49oqACN-229" target="dwY3H2Nn9N54C49oqACN-235" edge="1">
          <mxGeometry width="100" relative="1" as="geometry">
            <mxPoint x="1131" y="710" as="sourcePoint" />
            <mxPoint x="1136" y="740" as="targetPoint" />
          </mxGeometry>
        </mxCell>
        <mxCell id="dwY3H2Nn9N54C49oqACN-233" value="" style="orthogonalLoop=1;jettySize=auto;html=1;rounded=0;endArrow=none;endFill=0;exitX=0;exitY=1;exitDx=0;exitDy=0;entryX=1;entryY=0;entryDx=0;entryDy=0;" parent="1" source="dwY3H2Nn9N54C49oqACN-229" target="dwY3H2Nn9N54C49oqACN-234" edge="1">
          <mxGeometry width="100" relative="1" as="geometry">
            <mxPoint x="1101" y="710" as="sourcePoint" />
            <mxPoint x="1056" y="740" as="targetPoint" />
          </mxGeometry>
        </mxCell>
        <mxCell id="WSYIRpw8A01DwqGqD2C6-20" style="edgeStyle=orthogonalEdgeStyle;rounded=0;orthogonalLoop=1;jettySize=auto;html=1;exitX=0.5;exitY=1;exitDx=0;exitDy=0;entryX=0.5;entryY=0;entryDx=0;entryDy=0;endArrow=none;endFill=0;" parent="1" source="dwY3H2Nn9N54C49oqACN-234" target="WSYIRpw8A01DwqGqD2C6-19" edge="1">
          <mxGeometry relative="1" as="geometry">
            <Array as="points">
              <mxPoint x="1058" y="830" />
              <mxPoint x="1058" y="830" />
            </Array>
          </mxGeometry>
        </mxCell>
        <mxCell id="dwY3H2Nn9N54C49oqACN-234" value="Fecha" style="ellipse;whiteSpace=wrap;html=1;" parent="1" vertex="1">
          <mxGeometry x="1007.5" y="750" width="100" height="40" as="geometry" />
        </mxCell>
        <mxCell id="dwY3H2Nn9N54C49oqACN-235" value="Hora" style="ellipse;whiteSpace=wrap;html=1;" parent="1" vertex="1">
          <mxGeometry x="1126" y="750" width="100" height="40" as="geometry" />
        </mxCell>
        <mxCell id="dwY3H2Nn9N54C49oqACN-242" value="" style="orthogonalLoop=1;jettySize=auto;html=1;rounded=0;endArrow=none;endFill=0;entryX=0.5;entryY=0;entryDx=0;entryDy=0;exitX=0.75;exitY=1;exitDx=0;exitDy=0;" parent="1" source="dwY3H2Nn9N54C49oqACN-27" target="dwY3H2Nn9N54C49oqACN-243" edge="1">
          <mxGeometry width="100" relative="1" as="geometry">
            <mxPoint x="580" y="390" as="sourcePoint" />
            <mxPoint x="640" y="490" as="targetPoint" />
          </mxGeometry>
        </mxCell>
        <mxCell id="lAL7m3PNi31mJO6UvrHD-65" style="edgeStyle=orthogonalEdgeStyle;rounded=0;orthogonalLoop=1;jettySize=auto;html=1;exitX=0.5;exitY=1;exitDx=0;exitDy=0;entryX=0.5;entryY=0;entryDx=0;entryDy=0;endArrow=none;endFill=0;" parent="1" source="dwY3H2Nn9N54C49oqACN-243" target="dwY3H2Nn9N54C49oqACN-28" edge="1">
          <mxGeometry relative="1" as="geometry" />
        </mxCell>
        <mxCell id="dwY3H2Nn9N54C49oqACN-243" value="Hace" style="rhombus;whiteSpace=wrap;html=1;" parent="1" vertex="1">
          <mxGeometry x="580" y="400" width="60" height="40" as="geometry" />
        </mxCell>
        <mxCell id="dwY3H2Nn9N54C49oqACN-248" value="&lt;u&gt;NroReporte&lt;/u&gt;" style="ellipse;whiteSpace=wrap;html=1;" parent="1" vertex="1">
          <mxGeometry x="640" y="581" width="100" height="40" as="geometry" />
        </mxCell>
        <mxCell id="dwY3H2Nn9N54C49oqACN-249" value="Contenido" style="ellipse;whiteSpace=wrap;html=1;" parent="1" vertex="1">
          <mxGeometry x="752.5" y="581" width="100" height="40" as="geometry" />
        </mxCell>
        <mxCell id="dwY3H2Nn9N54C49oqACN-250" value="" style="orthogonalLoop=1;jettySize=auto;html=1;rounded=0;endArrow=none;endFill=0;entryX=0.5;entryY=1;entryDx=0;entryDy=0;exitX=0.5;exitY=0;exitDx=0;exitDy=0;" parent="1" source="dwY3H2Nn9N54C49oqACN-248" target="dwY3H2Nn9N54C49oqACN-28" edge="1">
          <mxGeometry width="100" relative="1" as="geometry">
            <mxPoint x="375" y="535" as="sourcePoint" />
            <mxPoint x="450" y="635" as="targetPoint" />
          </mxGeometry>
        </mxCell>
        <mxCell id="dwY3H2Nn9N54C49oqACN-251" value="" style="orthogonalLoop=1;jettySize=auto;html=1;rounded=0;endArrow=none;endFill=0;entryX=0.5;entryY=1;entryDx=0;entryDy=0;exitX=0.5;exitY=0;exitDx=0;exitDy=0;" parent="1" source="dwY3H2Nn9N54C49oqACN-249" target="dwY3H2Nn9N54C49oqACN-28" edge="1">
          <mxGeometry width="100" relative="1" as="geometry">
            <mxPoint x="385" y="545" as="sourcePoint" />
            <mxPoint x="450" y="655" as="targetPoint" />
          </mxGeometry>
        </mxCell>
        <mxCell id="dwY3H2Nn9N54C49oqACN-256" value="1" style="text;html=1;align=center;verticalAlign=middle;resizable=0;points=[];autosize=1;strokeColor=none;fillColor=none;fontFamily=Helvetica;fontSize=12;fontColor=default;" parent="1" vertex="1">
          <mxGeometry x="900" y="650" width="30" height="30" as="geometry" />
        </mxCell>
        <mxCell id="dwY3H2Nn9N54C49oqACN-257" value="n" style="text;html=1;align=center;verticalAlign=middle;resizable=0;points=[];autosize=1;strokeColor=none;fillColor=none;fontFamily=Helvetica;fontSize=12;fontColor=default;" parent="1" vertex="1">
          <mxGeometry x="900" y="521" width="30" height="30" as="geometry" />
        </mxCell>
        <mxCell id="dwY3H2Nn9N54C49oqACN-261" value="n" style="text;html=1;align=center;verticalAlign=middle;resizable=0;points=[];autosize=1;strokeColor=none;fillColor=none;fontFamily=Helvetica;fontSize=12;fontColor=default;" parent="1" vertex="1">
          <mxGeometry x="1240" y="451" width="30" height="30" as="geometry" />
        </mxCell>
        <mxCell id="dwY3H2Nn9N54C49oqACN-262" value="n" style="text;html=1;align=center;verticalAlign=middle;resizable=0;points=[];autosize=1;strokeColor=none;fillColor=none;fontFamily=Helvetica;fontSize=12;fontColor=default;" parent="1" vertex="1">
          <mxGeometry x="960" y="670" width="30" height="30" as="geometry" />
        </mxCell>
        <mxCell id="dwY3H2Nn9N54C49oqACN-267" value="n" style="text;html=1;align=center;verticalAlign=middle;resizable=0;points=[];autosize=1;strokeColor=none;fillColor=none;fontFamily=Helvetica;fontSize=12;fontColor=default;" parent="1" vertex="1">
          <mxGeometry x="640" y="310" width="30" height="30" as="geometry" />
        </mxCell>
        <mxCell id="dwY3H2Nn9N54C49oqACN-270" value="1" style="text;html=1;align=center;verticalAlign=middle;resizable=0;points=[];autosize=1;strokeColor=none;fillColor=none;fontFamily=Helvetica;fontSize=12;fontColor=default;" parent="1" vertex="1">
          <mxGeometry x="320" y="310" width="30" height="30" as="geometry" />
        </mxCell>
        <mxCell id="dwY3H2Nn9N54C49oqACN-271" value="n" style="text;html=1;align=center;verticalAlign=middle;resizable=0;points=[];autosize=1;strokeColor=none;fillColor=none;fontFamily=Helvetica;fontSize=12;fontColor=default;" parent="1" vertex="1">
          <mxGeometry x="490" y="310" width="30" height="30" as="geometry" />
        </mxCell>
        <mxCell id="dwY3H2Nn9N54C49oqACN-272" value="1" style="text;html=1;align=center;verticalAlign=middle;resizable=0;points=[];autosize=1;strokeColor=none;fillColor=none;fontFamily=Helvetica;fontSize=12;fontColor=default;" parent="1" vertex="1">
          <mxGeometry x="610" y="360" width="30" height="30" as="geometry" />
        </mxCell>
        <mxCell id="dwY3H2Nn9N54C49oqACN-273" value="n" style="text;html=1;align=center;verticalAlign=middle;resizable=0;points=[];autosize=1;strokeColor=none;fillColor=none;fontFamily=Helvetica;fontSize=12;fontColor=default;" parent="1" vertex="1">
          <mxGeometry x="780" y="450" width="30" height="30" as="geometry" />
        </mxCell>
        <mxCell id="xwuuviEwVFjDxVZsEcZH-1" value="1" style="text;html=1;align=center;verticalAlign=middle;resizable=0;points=[];autosize=1;strokeColor=none;fillColor=none;fontFamily=Helvetica;fontSize=12;fontColor=default;" parent="1" vertex="1">
          <mxGeometry x="379" y="670" width="30" height="30" as="geometry" />
        </mxCell>
        <mxCell id="xwuuviEwVFjDxVZsEcZH-2" value="1" style="text;html=1;align=center;verticalAlign=middle;resizable=0;points=[];autosize=1;strokeColor=none;fillColor=none;fontFamily=Helvetica;fontSize=12;fontColor=default;" parent="1" vertex="1">
          <mxGeometry x="810" y="671" width="30" height="30" as="geometry" />
        </mxCell>
        <mxCell id="xwuuviEwVFjDxVZsEcZH-6" value="Interior" style="ellipse;whiteSpace=wrap;html=1;" parent="1" vertex="1">
          <mxGeometry x="1400" y="681" width="100" height="40" as="geometry" />
        </mxCell>
        <mxCell id="xwuuviEwVFjDxVZsEcZH-7" value="" style="orthogonalLoop=1;jettySize=auto;html=1;rounded=0;endArrow=none;endFill=0;exitX=0;exitY=0.5;exitDx=0;exitDy=0;entryX=1;entryY=0.5;entryDx=0;entryDy=0;" parent="1" source="xwuuviEwVFjDxVZsEcZH-6" target="dwY3H2Nn9N54C49oqACN-34" edge="1">
          <mxGeometry width="100" relative="1" as="geometry">
            <mxPoint x="1420" y="900" as="sourcePoint" />
            <mxPoint x="1370" y="720" as="targetPoint" />
          </mxGeometry>
        </mxCell>
        <mxCell id="V9FqJ7vlno-GhkUseFHl-1" value="Precio" style="ellipse;whiteSpace=wrap;html=1;" parent="1" vertex="1">
          <mxGeometry x="1400" y="729" width="100" height="40" as="geometry" />
        </mxCell>
        <mxCell id="V9FqJ7vlno-GhkUseFHl-2" value="" style="orthogonalLoop=1;jettySize=auto;html=1;rounded=0;endArrow=none;endFill=0;exitX=0;exitY=0.5;exitDx=0;exitDy=0;entryX=1;entryY=0.5;entryDx=0;entryDy=0;" parent="1" source="V9FqJ7vlno-GhkUseFHl-1" target="dwY3H2Nn9N54C49oqACN-34" edge="1">
          <mxGeometry width="100" relative="1" as="geometry">
            <mxPoint x="1440" y="908" as="sourcePoint" />
            <mxPoint x="1380" y="718" as="targetPoint" />
          </mxGeometry>
        </mxCell>
        <mxCell id="WSYIRpw8A01DwqGqD2C6-1" value="&lt;font style=&quot;font-size: 18px;&quot;&gt;RNE (Restricciones no estructuradas)&lt;/font&gt;&lt;div&gt;&lt;font size=&quot;3&quot;&gt;*Los tipos de usuario son vendedor, cliente y administrador&lt;/font&gt;&lt;/div&gt;&lt;div&gt;&lt;font size=&quot;3&quot;&gt;*Costo: El precio de los productos es en pesos uruguayos&lt;/font&gt;&lt;/div&gt;" style="rounded=0;whiteSpace=wrap;html=1;align=left;" parent="1" vertex="1">
          <mxGeometry y="1190" width="440" height="100" as="geometry" />
        </mxCell>
        <mxCell id="WSYIRpw8A01DwqGqD2C6-3" value="DirEnvio" style="ellipse;whiteSpace=wrap;html=1;" parent="1" vertex="1">
          <mxGeometry x="980" y="430.5" width="100" height="40" as="geometry" />
        </mxCell>
        <mxCell id="WSYIRpw8A01DwqGqD2C6-19" value="-Dia&lt;br&gt;-Mes&lt;br&gt;-Año" style="rounded=1;whiteSpace=wrap;html=1;" parent="1" vertex="1">
          <mxGeometry x="1031" y="800" width="55" height="60" as="geometry" />
        </mxCell>
        <mxCell id="WSYIRpw8A01DwqGqD2C6-25" value="-Calle&lt;br&gt;-Número" style="rounded=1;whiteSpace=wrap;html=1;" parent="1" vertex="1">
          <mxGeometry x="1100" y="420.5" width="55" height="60" as="geometry" />
        </mxCell>
        <mxCell id="PAiHahWia9skPtNru_jK-9" value="n" style="text;html=1;align=center;verticalAlign=middle;resizable=0;points=[];autosize=1;strokeColor=none;fillColor=none;fontFamily=Helvetica;fontSize=12;fontColor=default;" parent="1" vertex="1">
          <mxGeometry x="1240" y="521" width="30" height="30" as="geometry" />
        </mxCell>
        <mxCell id="PAiHahWia9skPtNru_jK-12" value="" style="orthogonalLoop=1;jettySize=auto;html=1;rounded=0;endArrow=none;endFill=0;entryX=1;entryY=0.5;entryDx=0;entryDy=0;exitX=0;exitY=0.5;exitDx=0;exitDy=0;" parent="1" source="WSYIRpw8A01DwqGqD2C6-25" target="WSYIRpw8A01DwqGqD2C6-3" edge="1">
          <mxGeometry width="100" relative="1" as="geometry">
            <mxPoint x="1097.5" y="447.5" as="sourcePoint" />
            <mxPoint x="896.5" y="448.5" as="targetPoint" />
          </mxGeometry>
        </mxCell>
        <mxCell id="PAiHahWia9skPtNru_jK-13" value="Fecha" style="ellipse;whiteSpace=wrap;html=1;" parent="1" vertex="1">
          <mxGeometry x="980" y="480.5" width="100" height="40" as="geometry" />
        </mxCell>
        <mxCell id="PAiHahWia9skPtNru_jK-14" value="Hora" style="ellipse;whiteSpace=wrap;html=1;" parent="1" vertex="1">
          <mxGeometry x="980" y="530.5" width="100" height="40" as="geometry" />
        </mxCell>
        <mxCell id="PAiHahWia9skPtNru_jK-15" value="" style="orthogonalLoop=1;jettySize=auto;html=1;rounded=0;endArrow=none;endFill=0;entryX=1;entryY=0.5;entryDx=0;entryDy=0;exitX=0;exitY=0.5;exitDx=0;exitDy=0;" parent="1" source="WSYIRpw8A01DwqGqD2C6-3" target="dwY3H2Nn9N54C49oqACN-32" edge="1">
          <mxGeometry width="100" relative="1" as="geometry">
            <mxPoint x="1123" y="999" as="sourcePoint" />
            <mxPoint x="987" y="500" as="targetPoint" />
          </mxGeometry>
        </mxCell>
        <mxCell id="PAiHahWia9skPtNru_jK-16" value="" style="orthogonalLoop=1;jettySize=auto;html=1;rounded=0;endArrow=none;endFill=0;entryX=1;entryY=0.5;entryDx=0;entryDy=0;exitX=0;exitY=0.5;exitDx=0;exitDy=0;" parent="1" source="PAiHahWia9skPtNru_jK-13" target="dwY3H2Nn9N54C49oqACN-32" edge="1">
          <mxGeometry width="100" relative="1" as="geometry">
            <mxPoint x="1133" y="1009" as="sourcePoint" />
            <mxPoint x="987" y="500" as="targetPoint" />
          </mxGeometry>
        </mxCell>
        <mxCell id="PAiHahWia9skPtNru_jK-27" value="Nacionalidad" style="ellipse;whiteSpace=wrap;html=1;" parent="1" vertex="1">
          <mxGeometry x="140" y="830" width="100" height="40" as="geometry" />
        </mxCell>
        <mxCell id="PAiHahWia9skPtNru_jK-28" value="AñoNacimiento" style="ellipse;whiteSpace=wrap;html=1;" parent="1" vertex="1">
          <mxGeometry x="140" y="880" width="100" height="40" as="geometry" />
        </mxCell>
        <mxCell id="PAiHahWia9skPtNru_jK-29" value="" style="orthogonalLoop=1;jettySize=auto;html=1;rounded=0;endArrow=none;endFill=0;entryX=0;entryY=0.5;entryDx=0;entryDy=0;exitX=1;exitY=0.5;exitDx=0;exitDy=0;" parent="1" source="PAiHahWia9skPtNru_jK-27" target="dwY3H2Nn9N54C49oqACN-30" edge="1">
          <mxGeometry width="100" relative="1" as="geometry">
            <mxPoint x="780" y="651" as="sourcePoint" />
            <mxPoint x="850" y="550" as="targetPoint" />
          </mxGeometry>
        </mxCell>
        <mxCell id="PAiHahWia9skPtNru_jK-30" value="" style="orthogonalLoop=1;jettySize=auto;html=1;rounded=0;endArrow=none;endFill=0;entryX=0;entryY=0.5;entryDx=0;entryDy=0;exitX=1;exitY=0.5;exitDx=0;exitDy=0;" parent="1" source="PAiHahWia9skPtNru_jK-28" target="dwY3H2Nn9N54C49oqACN-30" edge="1">
          <mxGeometry width="100" relative="1" as="geometry">
            <mxPoint x="790" y="661" as="sourcePoint" />
            <mxPoint x="860" y="560" as="targetPoint" />
          </mxGeometry>
        </mxCell>
        <mxCell id="PAiHahWia9skPtNru_jK-31" value="Total" style="ellipse;whiteSpace=wrap;html=1;" parent="1" vertex="1">
          <mxGeometry x="980" y="579.5" width="100" height="40" as="geometry" />
        </mxCell>
        <mxCell id="PAiHahWia9skPtNru_jK-32" value="" style="orthogonalLoop=1;jettySize=auto;html=1;rounded=0;endArrow=none;endFill=0;entryX=0;entryY=0.5;entryDx=0;entryDy=0;exitX=1;exitY=0.5;exitDx=0;exitDy=0;" parent="1" source="dwY3H2Nn9N54C49oqACN-32" target="PAiHahWia9skPtNru_jK-31" edge="1">
          <mxGeometry width="100" relative="1" as="geometry">
            <mxPoint x="987" y="500" as="sourcePoint" />
            <mxPoint x="1143" y="479" as="targetPoint" />
          </mxGeometry>
        </mxCell>
        <mxCell id="lAL7m3PNi31mJO6UvrHD-3" value="&lt;u&gt;IdCliente&lt;/u&gt;" style="ellipse;whiteSpace=wrap;html=1;" parent="1" vertex="1">
          <mxGeometry x="140" y="531" width="100" height="40" as="geometry" />
        </mxCell>
        <mxCell id="lAL7m3PNi31mJO6UvrHD-4" value="" style="orthogonalLoop=1;jettySize=auto;html=1;rounded=0;endArrow=none;endFill=0;entryX=0;entryY=0.5;entryDx=0;entryDy=0;exitX=1;exitY=0.5;exitDx=0;exitDy=0;" parent="1" source="lAL7m3PNi31mJO6UvrHD-3" target="dwY3H2Nn9N54C49oqACN-30" edge="1">
          <mxGeometry width="100" relative="1" as="geometry">
            <mxPoint x="150" y="710" as="sourcePoint" />
            <mxPoint x="250" y="710" as="targetPoint" />
          </mxGeometry>
        </mxCell>
        <mxCell id="lAL7m3PNi31mJO6UvrHD-7" style="edgeStyle=orthogonalEdgeStyle;rounded=0;orthogonalLoop=1;jettySize=auto;html=1;exitX=0.5;exitY=1;exitDx=0;exitDy=0;entryX=0.5;entryY=0;entryDx=0;entryDy=0;endArrow=none;endFill=0;" parent="1" source="lAL7m3PNi31mJO6UvrHD-6" target="dwY3H2Nn9N54C49oqACN-30" edge="1">
          <mxGeometry relative="1" as="geometry">
            <Array as="points">
              <mxPoint x="425" y="600" />
              <mxPoint x="319" y="600" />
            </Array>
          </mxGeometry>
        </mxCell>
        <mxCell id="lAL7m3PNi31mJO6UvrHD-6" value="Gestiona" style="rhombus;whiteSpace=wrap;html=1;" parent="1" vertex="1">
          <mxGeometry x="395" y="521" width="60" height="40" as="geometry" />
        </mxCell>
        <mxCell id="lAL7m3PNi31mJO6UvrHD-10" value="1" style="text;html=1;align=center;verticalAlign=middle;resizable=0;points=[];autosize=1;strokeColor=none;fillColor=none;fontFamily=Helvetica;fontSize=12;fontColor=default;" parent="1" vertex="1">
          <mxGeometry x="540" y="360" width="30" height="30" as="geometry" />
        </mxCell>
        <mxCell id="lAL7m3PNi31mJO6UvrHD-11" value="n" style="text;html=1;align=center;verticalAlign=middle;resizable=0;points=[];autosize=1;strokeColor=none;fillColor=none;fontFamily=Helvetica;fontSize=12;fontColor=default;" parent="1" vertex="1">
          <mxGeometry x="319" y="650" width="30" height="30" as="geometry" />
        </mxCell>
        <mxCell id="lAL7m3PNi31mJO6UvrHD-19" value="" style="orthogonalLoop=1;jettySize=auto;html=1;rounded=0;endArrow=none;endFill=0;entryX=1;entryY=0.5;entryDx=0;entryDy=0;exitX=0;exitY=0.5;exitDx=0;exitDy=0;" parent="1" source="PAiHahWia9skPtNru_jK-14" target="dwY3H2Nn9N54C49oqACN-32" edge="1">
          <mxGeometry width="100" relative="1" as="geometry">
            <mxPoint x="996" y="558" as="sourcePoint" />
            <mxPoint x="970" y="510" as="targetPoint" />
          </mxGeometry>
        </mxCell>
        <mxCell id="lAL7m3PNi31mJO6UvrHD-25" value="RESEÑA" style="whiteSpace=wrap;html=1;" parent="1" vertex="1">
          <mxGeometry x="259" y="922" width="120" height="40" as="geometry" />
        </mxCell>
        <mxCell id="lAL7m3PNi31mJO6UvrHD-42" value="" style="orthogonalLoop=1;jettySize=auto;html=1;rounded=0;endArrow=none;endFill=0;entryX=0.5;entryY=1;entryDx=0;entryDy=0;exitX=1;exitY=0.5;exitDx=0;exitDy=0;" parent="1" source="lAL7m3PNi31mJO6UvrHD-43" target="lAL7m3PNi31mJO6UvrHD-25" edge="1">
          <mxGeometry width="100" relative="1" as="geometry">
            <mxPoint x="743" y="1569" as="sourcePoint" />
            <mxPoint x="660" y="950" as="targetPoint" />
          </mxGeometry>
        </mxCell>
        <mxCell id="lAL7m3PNi31mJO6UvrHD-43" value="&lt;u&gt;IdReseña&lt;/u&gt;" style="ellipse;whiteSpace=wrap;html=1;" parent="1" vertex="1">
          <mxGeometry x="159" y="1000" width="100" height="40" as="geometry" />
        </mxCell>
        <mxCell id="lAL7m3PNi31mJO6UvrHD-49" value="Fecha" style="ellipse;whiteSpace=wrap;html=1;" parent="1" vertex="1">
          <mxGeometry x="269" y="1000" width="100" height="40" as="geometry" />
        </mxCell>
        <mxCell id="lAL7m3PNi31mJO6UvrHD-52" value="" style="orthogonalLoop=1;jettySize=auto;html=1;rounded=0;endArrow=none;endFill=0;entryX=0.5;entryY=1;entryDx=0;entryDy=0;exitX=0.5;exitY=0;exitDx=0;exitDy=0;" parent="1" source="lAL7m3PNi31mJO6UvrHD-49" target="lAL7m3PNi31mJO6UvrHD-25" edge="1">
          <mxGeometry width="100" relative="1" as="geometry">
            <mxPoint x="833" y="1459" as="sourcePoint" />
            <mxPoint x="660" y="950" as="targetPoint" />
          </mxGeometry>
        </mxCell>
        <mxCell id="lAL7m3PNi31mJO6UvrHD-53" value="Contenido" style="ellipse;whiteSpace=wrap;html=1;" parent="1" vertex="1">
          <mxGeometry x="390" y="1000" width="100" height="40" as="geometry" />
        </mxCell>
        <mxCell id="lAL7m3PNi31mJO6UvrHD-54" value="" style="orthogonalLoop=1;jettySize=auto;html=1;rounded=0;endArrow=none;endFill=0;entryX=0;entryY=0.5;entryDx=0;entryDy=0;exitX=0.5;exitY=1;exitDx=0;exitDy=0;" parent="1" source="lAL7m3PNi31mJO6UvrHD-25" target="lAL7m3PNi31mJO6UvrHD-53" edge="1">
          <mxGeometry width="100" relative="1" as="geometry">
            <mxPoint x="660" y="950" as="sourcePoint" />
            <mxPoint x="843" y="929" as="targetPoint" />
          </mxGeometry>
        </mxCell>
        <mxCell id="lAL7m3PNi31mJO6UvrHD-58" value="1" style="text;html=1;align=center;verticalAlign=middle;resizable=0;points=[];autosize=1;strokeColor=none;fillColor=none;fontFamily=Helvetica;fontSize=12;fontColor=default;" parent="1" vertex="1">
          <mxGeometry x="319" y="721" width="30" height="30" as="geometry" />
        </mxCell>
        <mxCell id="lAL7m3PNi31mJO6UvrHD-59" value="n" style="text;html=1;align=center;verticalAlign=middle;resizable=0;points=[];autosize=1;strokeColor=none;fillColor=none;fontFamily=Helvetica;fontSize=12;fontColor=default;" parent="1" vertex="1">
          <mxGeometry x="319" y="889" width="30" height="30" as="geometry" />
        </mxCell>
        <mxCell id="s2BbOX3b1arR8v55w-0Q-2" style="edgeStyle=orthogonalEdgeStyle;rounded=0;orthogonalLoop=1;jettySize=auto;html=1;exitX=0.5;exitY=1;exitDx=0;exitDy=0;entryX=0.5;entryY=0;entryDx=0;entryDy=0;endArrow=none;endFill=0;" parent="1" source="lAL7m3PNi31mJO6UvrHD-62" target="lAL7m3PNi31mJO6UvrHD-25" edge="1">
          <mxGeometry relative="1" as="geometry" />
        </mxCell>
        <mxCell id="lAL7m3PNi31mJO6UvrHD-62" value="Reseñar" style="rhombus;whiteSpace=wrap;html=1;" parent="1" vertex="1">
          <mxGeometry x="289" y="790" width="60" height="40" as="geometry" />
        </mxCell>
        <mxCell id="KsEFmzejXXQ13R_7dwuC-1" value="Imagen" style="ellipse;whiteSpace=wrap;html=1;" parent="1" vertex="1">
          <mxGeometry x="1400" y="281" width="100" height="40" as="geometry" />
        </mxCell>
        <mxCell id="KsEFmzejXXQ13R_7dwuC-2" value="" style="orthogonalLoop=1;jettySize=auto;html=1;rounded=0;endArrow=none;endFill=0;exitX=0;exitY=0.5;exitDx=0;exitDy=0;entryX=1;entryY=0.5;entryDx=0;entryDy=0;" parent="1" source="KsEFmzejXXQ13R_7dwuC-1" target="dwY3H2Nn9N54C49oqACN-34" edge="1">
          <mxGeometry width="100" relative="1" as="geometry">
            <mxPoint x="1440" y="411" as="sourcePoint" />
            <mxPoint x="1400" y="660" as="targetPoint" />
          </mxGeometry>
        </mxCell>
        <mxCell id="fAyK1ohc_PUia5P7ffUz-3" style="edgeStyle=orthogonalEdgeStyle;rounded=0;orthogonalLoop=1;jettySize=auto;html=1;exitX=1;exitY=0.5;exitDx=0;exitDy=0;entryX=0;entryY=0.5;entryDx=0;entryDy=0;endArrow=none;endFill=0;" edge="1" parent="1" source="5tBW5dL1tw9CFQz2tSGq-2" target="fAyK1ohc_PUia5P7ffUz-1">
          <mxGeometry relative="1" as="geometry" />
        </mxCell>
        <mxCell id="5tBW5dL1tw9CFQz2tSGq-2" value="DATOS_EMPRESA_CONTACTO" style="whiteSpace=wrap;html=1;" parent="1" vertex="1">
          <mxGeometry x="-130" y="220" width="200" height="40" as="geometry" />
        </mxCell>
        <mxCell id="5tBW5dL1tw9CFQz2tSGq-3" value="DATOS_EMPRESA_DIRECCION" style="whiteSpace=wrap;html=1;" parent="1" vertex="1">
          <mxGeometry x="-130" y="420" width="200" height="40" as="geometry" />
        </mxCell>
        <mxCell id="5tBW5dL1tw9CFQz2tSGq-6" value="1" style="text;html=1;align=center;verticalAlign=middle;resizable=0;points=[];autosize=1;strokeColor=none;fillColor=none;fontFamily=Helvetica;fontSize=12;fontColor=default;" parent="1" vertex="1">
          <mxGeometry x="200" y="360" width="30" height="30" as="geometry" />
        </mxCell>
        <mxCell id="5tBW5dL1tw9CFQz2tSGq-7" value="1" style="text;html=1;align=center;verticalAlign=middle;resizable=0;points=[];autosize=1;strokeColor=none;fillColor=none;fontFamily=Helvetica;fontSize=12;fontColor=default;" parent="1" vertex="1">
          <mxGeometry x="70" y="440" width="30" height="30" as="geometry" />
        </mxCell>
        <mxCell id="5tBW5dL1tw9CFQz2tSGq-8" value="1" style="text;html=1;align=center;verticalAlign=middle;resizable=0;points=[];autosize=1;strokeColor=none;fillColor=none;fontFamily=Helvetica;fontSize=12;fontColor=default;" parent="1" vertex="1">
          <mxGeometry x="70" y="240" width="30" height="30" as="geometry" />
        </mxCell>
        <mxCell id="5tBW5dL1tw9CFQz2tSGq-9" value="1" style="text;html=1;align=center;verticalAlign=middle;resizable=0;points=[];autosize=1;strokeColor=none;fillColor=none;fontFamily=Helvetica;fontSize=12;fontColor=default;" parent="1" vertex="1">
          <mxGeometry x="200" y="290" width="30" height="30" as="geometry" />
        </mxCell>
        <mxCell id="5tBW5dL1tw9CFQz2tSGq-10" value="" style="orthogonalLoop=1;jettySize=auto;html=1;rounded=0;endArrow=none;endFill=0;entryX=0.5;entryY=0;entryDx=0;entryDy=0;exitX=1;exitY=0.5;exitDx=0;exitDy=0;" parent="1" source="dwY3H2Nn9N54C49oqACN-43" target="5tBW5dL1tw9CFQz2tSGq-2" edge="1">
          <mxGeometry width="100" relative="1" as="geometry">
            <mxPoint x="-150" y="189.5" as="sourcePoint" />
            <mxPoint x="-80" y="189.5" as="targetPoint" />
          </mxGeometry>
        </mxCell>
        <mxCell id="5tBW5dL1tw9CFQz2tSGq-11" value="" style="orthogonalLoop=1;jettySize=auto;html=1;rounded=0;endArrow=none;endFill=0;entryX=0.5;entryY=0;entryDx=0;entryDy=0;exitX=1;exitY=0.5;exitDx=0;exitDy=0;" parent="1" source="dwY3H2Nn9N54C49oqACN-42" target="5tBW5dL1tw9CFQz2tSGq-2" edge="1">
          <mxGeometry width="100" relative="1" as="geometry">
            <mxPoint x="-70" y="140" as="sourcePoint" />
            <mxPoint x="-20" y="230" as="targetPoint" />
          </mxGeometry>
        </mxCell>
        <mxCell id="5tBW5dL1tw9CFQz2tSGq-12" value="" style="orthogonalLoop=1;jettySize=auto;html=1;rounded=0;endArrow=none;endFill=0;entryX=0.5;entryY=0;entryDx=0;entryDy=0;exitX=0;exitY=0.5;exitDx=0;exitDy=0;" parent="1" source="dwY3H2Nn9N54C49oqACN-39" target="5tBW5dL1tw9CFQz2tSGq-2" edge="1">
          <mxGeometry width="100" relative="1" as="geometry">
            <mxPoint x="-60" y="150" as="sourcePoint" />
            <mxPoint x="-10" y="240" as="targetPoint" />
          </mxGeometry>
        </mxCell>
        <mxCell id="5tBW5dL1tw9CFQz2tSGq-13" value="" style="orthogonalLoop=1;jettySize=auto;html=1;rounded=0;endArrow=none;endFill=0;entryX=0.5;entryY=0;entryDx=0;entryDy=0;exitX=0;exitY=0.5;exitDx=0;exitDy=0;" parent="1" source="dwY3H2Nn9N54C49oqACN-40" target="5tBW5dL1tw9CFQz2tSGq-2" edge="1">
          <mxGeometry width="100" relative="1" as="geometry">
            <mxPoint x="-50" y="160" as="sourcePoint" />
            <mxPoint y="250" as="targetPoint" />
          </mxGeometry>
        </mxCell>
        <mxCell id="5tBW5dL1tw9CFQz2tSGq-14" value="" style="orthogonalLoop=1;jettySize=auto;html=1;rounded=0;endArrow=none;endFill=0;entryX=0.5;entryY=0;entryDx=0;entryDy=0;exitX=0;exitY=0.5;exitDx=0;exitDy=0;" parent="1" source="dwY3H2Nn9N54C49oqACN-41" target="5tBW5dL1tw9CFQz2tSGq-2" edge="1">
          <mxGeometry width="100" relative="1" as="geometry">
            <mxPoint x="-40" y="170" as="sourcePoint" />
            <mxPoint x="10" y="260" as="targetPoint" />
          </mxGeometry>
        </mxCell>
        <mxCell id="5tBW5dL1tw9CFQz2tSGq-15" value="Numero" style="ellipse;whiteSpace=wrap;html=1;" parent="1" vertex="1">
          <mxGeometry x="-10" y="480" width="100" height="40" as="geometry" />
        </mxCell>
        <mxCell id="5tBW5dL1tw9CFQz2tSGq-16" value="Calle" style="ellipse;whiteSpace=wrap;html=1;" parent="1" vertex="1">
          <mxGeometry x="-150" y="481" width="100" height="40" as="geometry" />
        </mxCell>
        <mxCell id="5tBW5dL1tw9CFQz2tSGq-17" value="" style="orthogonalLoop=1;jettySize=auto;html=1;rounded=0;endArrow=none;endFill=0;entryX=0.5;entryY=1;entryDx=0;entryDy=0;exitX=0;exitY=0.5;exitDx=0;exitDy=0;" parent="1" source="5tBW5dL1tw9CFQz2tSGq-15" target="5tBW5dL1tw9CFQz2tSGq-3" edge="1">
          <mxGeometry width="100" relative="1" as="geometry">
            <mxPoint x="-20" y="670" as="sourcePoint" />
            <mxPoint x="-50" y="710" as="targetPoint" />
          </mxGeometry>
        </mxCell>
        <mxCell id="5tBW5dL1tw9CFQz2tSGq-18" value="" style="orthogonalLoop=1;jettySize=auto;html=1;rounded=0;endArrow=none;endFill=0;entryX=0.5;entryY=1;entryDx=0;entryDy=0;exitX=1;exitY=0.5;exitDx=0;exitDy=0;" parent="1" source="5tBW5dL1tw9CFQz2tSGq-16" target="5tBW5dL1tw9CFQz2tSGq-3" edge="1">
          <mxGeometry width="100" relative="1" as="geometry">
            <mxPoint y="510" as="sourcePoint" />
            <mxPoint x="-20" y="470" as="targetPoint" />
          </mxGeometry>
        </mxCell>
        <mxCell id="5tBW5dL1tw9CFQz2tSGq-20" value="" style="orthogonalLoop=1;jettySize=auto;html=1;rounded=0;endArrow=none;endFill=0;entryX=0.5;entryY=0;entryDx=0;entryDy=0;exitX=0;exitY=0.5;exitDx=0;exitDy=0;" parent="1" source="dwY3H2Nn9N54C49oqACN-35" target="dwY3H2Nn9N54C49oqACN-2" edge="1">
          <mxGeometry width="100" relative="1" as="geometry">
            <mxPoint x="60" y="90" as="sourcePoint" />
            <mxPoint x="30" y="230" as="targetPoint" />
          </mxGeometry>
        </mxCell>
        <mxCell id="5tBW5dL1tw9CFQz2tSGq-21" value="" style="orthogonalLoop=1;jettySize=auto;html=1;rounded=0;endArrow=none;endFill=0;entryX=0.5;entryY=0;entryDx=0;entryDy=0;exitX=0;exitY=0.5;exitDx=0;exitDy=0;" parent="1" source="dwY3H2Nn9N54C49oqACN-44" target="dwY3H2Nn9N54C49oqACN-2" edge="1">
          <mxGeometry width="100" relative="1" as="geometry">
            <mxPoint x="70" y="100" as="sourcePoint" />
            <mxPoint x="40" y="240" as="targetPoint" />
          </mxGeometry>
        </mxCell>
        <mxCell id="5tBW5dL1tw9CFQz2tSGq-22" value="" style="orthogonalLoop=1;jettySize=auto;html=1;rounded=0;endArrow=none;endFill=0;entryX=0.5;entryY=0;entryDx=0;entryDy=0;exitX=0;exitY=0.5;exitDx=0;exitDy=0;" parent="1" source="dwY3H2Nn9N54C49oqACN-37" target="dwY3H2Nn9N54C49oqACN-2" edge="1">
          <mxGeometry width="100" relative="1" as="geometry">
            <mxPoint x="80" y="110" as="sourcePoint" />
            <mxPoint x="50" y="250" as="targetPoint" />
          </mxGeometry>
        </mxCell>
        <mxCell id="5tBW5dL1tw9CFQz2tSGq-23" value="" style="orthogonalLoop=1;jettySize=auto;html=1;rounded=0;endArrow=none;endFill=0;entryX=0.5;entryY=0;entryDx=0;entryDy=0;exitX=0;exitY=0.5;exitDx=0;exitDy=0;" parent="1" source="dwY3H2Nn9N54C49oqACN-38" target="dwY3H2Nn9N54C49oqACN-2" edge="1">
          <mxGeometry width="100" relative="1" as="geometry">
            <mxPoint x="90" y="120" as="sourcePoint" />
            <mxPoint x="60" y="260" as="targetPoint" />
          </mxGeometry>
        </mxCell>
        <mxCell id="5tBW5dL1tw9CFQz2tSGq-24" value="" style="orthogonalLoop=1;jettySize=auto;html=1;rounded=0;endArrow=none;endFill=0;exitX=0;exitY=0.5;exitDx=0;exitDy=0;entryX=1;entryY=0.5;entryDx=0;entryDy=0;" parent="1" source="dwY3H2Nn9N54C49oqACN-174" target="dwY3H2Nn9N54C49oqACN-34" edge="1">
          <mxGeometry width="100" relative="1" as="geometry">
            <mxPoint x="1440" y="320" as="sourcePoint" />
            <mxPoint x="1400" y="660" as="targetPoint" />
          </mxGeometry>
        </mxCell>
        <mxCell id="fAyK1ohc_PUia5P7ffUz-1" value="Contacta" style="rhombus;whiteSpace=wrap;html=1;" vertex="1" parent="1">
          <mxGeometry x="120" y="220" width="60" height="40" as="geometry" />
        </mxCell>
        <mxCell id="fAyK1ohc_PUia5P7ffUz-4" style="edgeStyle=orthogonalEdgeStyle;rounded=0;orthogonalLoop=1;jettySize=auto;html=1;exitX=0;exitY=0.5;exitDx=0;exitDy=0;entryX=1;entryY=0.5;entryDx=0;entryDy=0;endArrow=none;endFill=0;" edge="1" parent="1" source="fAyK1ohc_PUia5P7ffUz-2" target="5tBW5dL1tw9CFQz2tSGq-3">
          <mxGeometry relative="1" as="geometry" />
        </mxCell>
        <mxCell id="fAyK1ohc_PUia5P7ffUz-2" value="Ubica" style="rhombus;whiteSpace=wrap;html=1;" vertex="1" parent="1">
          <mxGeometry x="120" y="420" width="60" height="40" as="geometry" />
        </mxCell>
        <mxCell id="fAyK1ohc_PUia5P7ffUz-6" value="Promocionado" style="ellipse;whiteSpace=wrap;html=1;" vertex="1" parent="1">
          <mxGeometry x="1400" y="780" width="100" height="40" as="geometry" />
        </mxCell>
        <mxCell id="fAyK1ohc_PUia5P7ffUz-7" value="Porcentaje" style="ellipse;whiteSpace=wrap;html=1;" vertex="1" parent="1">
          <mxGeometry x="1400" y="830" width="100" height="40" as="geometry" />
        </mxCell>
        <mxCell id="fAyK1ohc_PUia5P7ffUz-8" value="" style="orthogonalLoop=1;jettySize=auto;html=1;rounded=0;endArrow=none;endFill=0;exitX=0;exitY=0.5;exitDx=0;exitDy=0;entryX=1;entryY=0.5;entryDx=0;entryDy=0;" edge="1" parent="1" source="fAyK1ohc_PUia5P7ffUz-6" target="dwY3H2Nn9N54C49oqACN-34">
          <mxGeometry width="100" relative="1" as="geometry">
            <mxPoint x="1410" y="809" as="sourcePoint" />
            <mxPoint x="1370" y="511" as="targetPoint" />
          </mxGeometry>
        </mxCell>
        <mxCell id="fAyK1ohc_PUia5P7ffUz-9" value="" style="orthogonalLoop=1;jettySize=auto;html=1;rounded=0;endArrow=none;endFill=0;exitX=0;exitY=0.5;exitDx=0;exitDy=0;entryX=1;entryY=0.5;entryDx=0;entryDy=0;" edge="1" parent="1" source="fAyK1ohc_PUia5P7ffUz-7" target="dwY3H2Nn9N54C49oqACN-34">
          <mxGeometry width="100" relative="1" as="geometry">
            <mxPoint x="1420" y="819" as="sourcePoint" />
            <mxPoint x="1380" y="521" as="targetPoint" />
          </mxGeometry>
        </mxCell>
      </root>
    </mxGraphModel>
  </diagram>
</mxfile>
